<svg width="444" height="78" viewBox="0 0 444 78" fill="none" xmlns="http://www.w3.org/2000/svg">
<g clip-path="url(#clip0_3262_67)">
<path d="M89.0099 66.2899C89.1899 66.2199 89.3199 66.0499 89.2899 65.8199C88.4499 60.1599 89.3199 58.2399 94.1099 55.1099C94.4999 54.8499 94.2699 54.2399 93.8099 54.3099C88.1499 55.1499 86.2299 54.2799 83.0999 49.4899C82.9699 49.2899 82.7499 49.2499 82.5799 49.3199C82.4099 49.3899 82.2699 49.5599 82.2999 49.7899C83.1399 55.4499 82.2699 57.3699 77.4799 60.4999C77.0899 60.7599 77.3199 61.3699 77.7799 61.2999C83.4399 60.4599 85.3599 61.3299 88.4899 66.1199C88.6199 66.3199 88.8399 66.3599 89.0099 66.2899ZM81.0999 43.9199C81.2499 44.0399 81.4699 44.0699 81.6499 43.9199C86.1299 40.3599 88.2299 40.1499 93.3399 42.7299C93.7599 42.9399 94.1699 42.4299 93.8799 42.0699C90.3199 37.5899 90.1099 35.4899 92.6899 30.3799C92.7999 30.1699 92.7199 29.9599 92.5799 29.8399C92.4399 29.7199 92.2099 29.6899 92.0299 29.8399C87.5499 33.3999 85.4499 33.6099 80.3399 31.0299C79.9199 30.8199 79.5099 31.3299 79.7999 31.6899C83.3599 36.1699 83.5699 38.2699 80.9899 43.3799C80.8799 43.5899 80.9599 43.7999 81.0999 43.9199ZM96.5199 25.8899C96.4899 26.0799 96.5699 26.2799 96.7899 26.3699C102.11 28.4699 103.34 30.1799 103.66 35.8999C103.69 36.3699 104.33 36.4699 104.51 36.0399C106.61 30.7199 108.32 29.4899 114.04 29.1699C114.28 29.1599 114.42 28.9899 114.45 28.7999C114.48 28.6099 114.4 28.4099 114.18 28.3199C108.86 26.2199 107.63 24.5099 107.31 18.7899C107.28 18.3199 106.64 18.2199 106.46 18.6499C104.36 23.9699 102.65 25.1999 96.9299 25.5199C96.6899 25.5299 96.5499 25.6999 96.5199 25.8899ZM119.84 30.2299C119.66 30.2999 119.53 30.4699 119.56 30.6999C120.4 36.3599 119.53 38.2799 114.74 41.4099C114.35 41.6699 114.58 42.2799 115.04 42.2099C120.7 41.3699 122.62 42.2399 125.75 47.0299C125.88 47.2299 126.1 47.2699 126.27 47.1999C126.44 47.1299 126.58 46.9599 126.55 46.7299C125.71 41.0699 126.58 39.1499 131.37 36.0199C131.76 35.7599 131.53 35.1499 131.07 35.2199C125.41 36.0599 123.49 35.1899 120.36 30.3999C120.308 30.3141 120.227 30.2498 120.131 30.2186C120.036 30.1875 119.933 30.1915 119.84 30.2299ZM127.75 52.5899C127.673 52.5245 127.576 52.4886 127.475 52.4886C127.374 52.4886 127.277 52.5245 127.2 52.5899C122.72 56.1499 120.62 56.3599 115.51 53.7799C115.09 53.5699 114.68 54.0799 114.97 54.4399C118.53 58.9199 118.74 61.0199 116.16 66.1299C116.05 66.3399 116.13 66.5499 116.27 66.6699C116.41 66.7899 116.64 66.8199 116.82 66.6699C121.3 63.1099 123.4 62.8999 128.51 65.4799C128.93 65.6899 129.34 65.1799 129.05 64.8199C125.49 60.3399 125.28 58.2399 127.86 53.1299C127.97 52.9199 127.89 52.7099 127.75 52.5899ZM112.33 70.6199C112.349 70.5209 112.332 70.4185 112.282 70.3307C112.233 70.2429 112.154 70.1754 112.06 70.1399C106.74 68.0399 105.51 66.3299 105.19 60.6099C105.16 60.1399 104.52 60.0399 104.34 60.4699C102.24 65.7899 100.53 67.0199 94.8099 67.3399C94.5699 67.3499 94.4299 67.5199 94.3999 67.7099C94.3699 67.8999 94.4499 68.0999 94.6699 68.1899C99.9899 70.2899 101.22 71.9999 101.54 77.7199C101.57 78.1899 102.21 78.2899 102.39 77.8599C104.49 72.5399 106.2 71.3099 111.92 70.9899C112.16 70.9799 112.3 70.8099 112.33 70.6199Z" fill="#F57C00"/>
<path d="M-9.53674e-06 72.1V24.58C-9.53674e-06 23.65 0.409991 23.14 1.33999 23.14H5.65999C6.68999 23.14 7.09999 23.55 7.09999 24.68L7.30999 30.44C9.77999 25.71 14.2 21.9 21.61 21.9C28.6 21.9 33.85 25.19 36.42 31.77C38.99 26.32 43.72 21.9 52.26 21.9C62.65 21.9 68.92 28.69 68.92 41.96V72.1C68.92 73.03 68.51 73.54 67.58 73.54H62.85C61.92 73.54 61.51 73.03 61.51 72.1V42.79C61.51 33.94 57.91 28.8 50.61 28.8C43.31 28.8 38.16 34.05 38.16 42.79V72.1C38.16 73.03 37.75 73.54 36.82 73.54H32.09C31.16 73.54 30.75 73.03 30.75 72.1V42.79C30.75 33.94 26.64 28.8 19.33 28.8C12.02 28.8 7.39999 34.05 7.39999 42.79V72.1C7.39999 73.03 6.98999 73.54 6.05999 73.54H1.32999C0.39999 73.54 -0.0100098 73.03 -0.0100098 72.1H-9.53674e-06ZM137.52 48.34C137.52 33.32 147.6 21.91 162.31 21.91C171.16 21.91 177.84 26.13 181.54 32.71V1.44C181.54 0.510001 181.95 0 182.88 0H187.61C188.54 0 188.95 0.510001 188.95 1.44V72.1C188.95 73.03 188.54 73.54 187.61 73.54H183.19C182.26 73.54 181.85 73.03 181.85 72.1L181.64 63.87C177.94 70.66 171.35 74.77 162.3 74.77C147.59 74.77 137.51 63.46 137.51 48.33L137.52 48.34ZM163.33 67.89C174.13 67.89 181.64 60.18 181.64 48.55C181.64 36.92 174.13 28.8 163.33 28.8C152.53 28.8 144.71 36.72 144.71 48.34C144.71 59.96 152.53 67.88 163.33 67.88V67.89ZM197.79 48.14C197.79 33.33 208.08 21.91 223.09 21.91C238.1 21.91 246.64 33.43 246.64 45.77C246.64 49.47 245.92 51.02 242.94 51.02H204.98C206.01 61 212.8 68.51 225.04 68.51C231.21 68.51 235.63 66.66 239.54 63.68C240.05 63.27 240.67 63.27 241.08 63.78L242.83 66.15C243.55 67.08 243.14 67.59 242.42 68.31C237.89 72.63 231.41 74.79 224.42 74.79C207.96 74.79 197.78 62.86 197.78 48.15L197.79 48.14ZM240.06 45.26C239.65 35.28 233.17 28.49 222.99 28.49C212.81 28.49 206.02 34.97 204.99 45.26H240.07H240.06ZM255.59 72.1V24.58C255.59 23.65 256 23.14 256.93 23.14H261.25C262.28 23.14 262.69 23.55 262.69 24.68L262.9 30.44C264.85 25.71 268.25 21.9 274.52 21.9C276.58 21.9 278.22 22.31 279.15 22.93C279.77 23.34 279.97 23.75 279.97 24.68V28.28C279.97 29.41 279.25 29.62 278.12 29.31C276.78 28.9 275.55 28.8 274.52 28.8C265.47 28.8 263 36.82 263 42.48V72.1C263 73.03 262.59 73.54 261.66 73.54H256.93C256 73.54 255.59 73.03 255.59 72.1ZM282.75 48.34C282.75 33.32 293.86 21.91 308.57 21.91C323.28 21.91 334.28 33.33 334.28 48.34C334.28 63.35 323.17 74.78 308.57 74.78C293.97 74.78 282.75 63.36 282.75 48.34ZM308.56 67.89C319.15 67.89 327.07 59.76 327.07 48.35C327.07 36.94 319.15 28.81 308.56 28.81C297.97 28.81 289.94 36.94 289.94 48.35C289.94 59.76 297.86 67.89 308.56 67.89ZM343.22 72.1V24.58C343.22 23.65 343.63 23.14 344.56 23.14H348.88C349.91 23.14 350.32 23.55 350.32 24.68L350.53 30.44C352.48 25.71 355.88 21.9 362.15 21.9C364.21 21.9 365.85 22.31 366.78 22.93C367.4 23.34 367.6 23.75 367.6 24.68V28.28C367.6 29.41 366.88 29.62 365.75 29.31C364.41 28.9 363.18 28.8 362.15 28.8C353.1 28.8 350.63 36.82 350.63 42.48V72.1C350.63 73.03 350.22 73.54 349.29 73.54H344.56C343.63 73.54 343.22 73.03 343.22 72.1Z" fill="black"/>
<path d="M372.3 48.3399C372.3 33.3199 382.38 21.9099 397.09 21.9099C406.14 21.9099 412.72 26.3299 416.43 33.0199L416.64 24.5899C416.64 23.6599 417.05 23.1499 417.98 23.1499H422.4C423.33 23.1499 423.74 23.6599 423.74 24.5899V72.1099C423.74 73.0399 423.33 73.5499 422.4 73.5499H417.98C417.05 73.5499 416.64 73.0399 416.64 72.1099L416.43 63.8799C412.73 70.6699 406.14 74.7799 397.09 74.7799C382.38 74.7799 372.3 63.4699 372.3 48.3399ZM398.12 67.8899C408.92 67.8899 416.43 60.1799 416.43 48.5499C416.43 36.9199 408.92 28.7999 398.12 28.7999C387.32 28.7999 379.5 36.7199 379.5 48.3399C379.5 59.9599 387.32 67.8799 398.12 67.8799V67.8899Z" fill="#F57C00"/>
<path d="M365.41 73.6501C368.392 73.6501 370.81 71.2324 370.81 68.2501C370.81 65.2678 368.392 62.8501 365.41 62.8501C362.428 62.8501 360.01 65.2678 360.01 68.2501C360.01 71.2324 362.428 73.6501 365.41 73.6501Z" fill="#F57C00"/>
<path d="M434.65 24.5799C434.65 23.6499 435.06 23.1399 435.99 23.1399H440.72C441.65 23.1399 442.06 23.6499 442.06 24.5799V72.0999C442.06 73.0299 441.65 73.5399 440.72 73.5399H435.99C435.06 73.5399 434.65 73.0299 434.65 72.0999V24.5799Z" fill="#F57C00"/>
<path d="M438.35 19.6601C441.332 19.6601 443.75 17.2424 443.75 14.2601C443.75 11.2778 441.332 8.86011 438.35 8.86011C435.368 8.86011 432.95 11.2778 432.95 14.2601C432.95 17.2424 435.368 19.6601 438.35 19.6601Z" fill="#F57C00"/>
</g>
<defs>
<clipPath id="clip0_3262_67">
<rect width="444" height="78" fill="white"/>
</clipPath>
</defs>
</svg>
