<?xml version="1.0" encoding="UTF-8" standalone="no"?>
<!DOCTYPE svg PUBLIC "-//W3C//DTD SVG 1.1//EN" "http://www.w3.org/Graphics/SVG/1.1/DTD/svg11.dtd">
<svg width="100%" height="100%" viewBox="0 0 672 205" version="1.1" xmlns="http://www.w3.org/2000/svg" xmlns:xlink="http://www.w3.org/1999/xlink" xml:space="preserve" xmlns:serif="http://www.serif.com/" style="fill-rule:evenodd;clip-rule:evenodd;stroke-linejoin:round;stroke-miterlimit:2;">
    <g transform="matrix(1,0,0,1,-81.542,-200.542)">
        <g transform="matrix(1,0,0,1,324.447,316.932)">
            <path d="M0,-79.978C1.679,-79.978 2.519,-79.138 2.519,-77.463L2.519,-47.758L55.989,-47.758L55.989,-77.463C55.989,-79.138 56.829,-79.978 58.499,-79.978L70.841,-79.978C72.59,-79.978 73.465,-79.138 73.465,-77.463L73.465,-2.515C73.465,-0.836 72.59,0 70.841,0L58.499,0C56.829,0 55.989,-0.836 55.989,-2.515L55.989,-32.906L2.519,-32.906L2.519,-2.515C2.519,-0.836 1.679,0 0,0L-12.333,0C-14.091,0 -14.966,-0.836 -14.966,-2.515L-14.966,-77.463C-14.966,-79.138 -14.091,-79.978 -12.333,-79.978L0,-79.978Z" style="fill:rgb(117,48,67);fill-rule:nonzero;"/>
        </g>
        <g transform="matrix(1,0,0,1,427.958,316.932)">
            <path d="M0,-79.978C1.679,-79.978 2.519,-79.138 2.519,-77.463L2.519,-2.515C2.519,-0.836 1.679,0 0,0L-12.333,0C-14.092,0 -14.966,-0.836 -14.966,-2.515L-14.966,-77.463C-14.966,-79.138 -14.092,-79.978 -12.333,-79.978L0,-79.978Z" style="fill:rgb(117,48,67);fill-rule:nonzero;"/>
        </g>
        <g transform="matrix(1,0,0,1,463.147,276.486)">
            <path d="M0,0.914L43.761,0.914C47.645,0.914 50.391,0.079 51.991,-1.601C53.584,-3.275 54.389,-5.825 54.389,-9.254L54.389,-13.597C54.389,-17.022 53.584,-19.575 51.991,-21.251C50.391,-22.925 47.645,-23.765 43.761,-23.765L1.487,-23.765C0.499,-23.765 0,-23.306 0,-22.392L0,0.914ZM47.304,-39.532C56.059,-39.532 62.348,-37.55 66.153,-33.588C69.967,-29.63 71.864,-23.765 71.864,-15.994L71.864,-7.54C71.864,0.227 69.967,6.097 66.153,10.055C62.348,14.017 56.059,15.994 47.304,15.994L0,15.994L0,37.932C0,39.61 -0.84,40.446 -2.511,40.446L-14.853,40.446C-16.602,40.446 -17.477,39.61 -17.477,37.932L-17.477,-36.103C-17.477,-38.39 -16.339,-39.532 -14.048,-39.532L47.304,-39.532Z" style="fill:rgb(117,48,67);fill-rule:nonzero;"/>
        </g>
        <g transform="matrix(1,0,0,1,563.465,266.433)">
            <path d="M0,21.022L39.3,21.022L21.133,-12.453C20.826,-12.986 20.406,-13.253 19.882,-13.253L19.19,-13.253C18.657,-13.253 18.237,-12.986 17.94,-12.453L0,21.022ZM22.165,-29.478C25.06,-29.478 27.491,-28.888 29.478,-27.707C31.454,-26.526 33.396,-24.221 35.303,-20.792L73.124,47.871C73.5,48.631 73.597,49.261 73.404,49.755C73.212,50.254 72.661,50.5 71.751,50.5L57.24,50.5C55.945,50.5 55.07,50.005 54.616,49.012L46.499,34.274L-7.198,34.274L-15.08,49.012C-15.613,50.005 -16.497,50.5 -17.713,50.5L-32.564,50.5C-33.553,50.5 -34.147,50.254 -34.332,49.755C-34.524,49.261 -34.428,48.631 -34.052,47.871L3.429,-20.792C5.327,-24.221 7.199,-26.526 9.027,-27.707C10.855,-28.888 12.98,-29.478 15.421,-29.478L22.165,-29.478Z" style="fill:rgb(117,48,67);fill-rule:nonzero;"/>
        </g>
        <g transform="matrix(1,0,0,1,679.335,266.433)">
            <path d="M0,21.022L39.309,21.022L21.142,-12.453C20.836,-12.986 20.416,-13.253 19.882,-13.253L19.2,-13.253C18.666,-13.253 18.246,-12.986 17.94,-12.453L0,21.022ZM22.165,-29.478C25.061,-29.478 27.501,-28.888 29.478,-27.707C31.463,-26.526 33.405,-24.221 35.312,-20.792L73.125,47.871C73.51,48.631 73.597,49.261 73.413,49.755C73.221,50.254 72.67,50.5 71.751,50.5L57.24,50.5C55.945,50.5 55.071,50.005 54.616,49.012L46.508,34.274L-7.198,34.274L-15.079,49.012C-15.613,50.005 -16.487,50.5 -17.703,50.5L-32.556,50.5C-33.553,50.5 -34.139,50.254 -34.331,49.755C-34.523,49.261 -34.428,48.631 -34.043,47.871L3.429,-20.792C5.336,-24.221 7.199,-26.526 9.027,-27.707C10.855,-28.888 12.989,-29.478 15.43,-29.478L22.165,-29.478Z" style="fill:rgb(117,48,67);fill-rule:nonzero;"/>
        </g>
        <g>
            <g>
                <g transform="matrix(1,0,0,1,321.126,395.156)">
                    <path d="M0,-57.837L0,-19.19C0,-13.899 -1.875,-9.382 -5.625,-5.632C-9.375,-1.875 -13.898,0 -19.183,0L-19.183,-6.261C-15.616,-6.261 -12.561,-7.532 -10.024,-10.07C-7.513,-12.581 -6.254,-15.616 -6.254,-19.19L-6.254,-51.569L-15.813,-51.569L-15.813,-57.837L0,-57.837Z" style="fill:rgb(149,150,150);fill-rule:nonzero;"/>
                </g>
                <g transform="matrix(1,0,0,1,359.368,382.155)">
                    <path d="M0,-32.984C-4.569,-28.408 -6.857,-22.914 -6.857,-16.495C-6.857,-10.07 -4.569,-4.576 0,0C4.543,4.543 10.038,6.818 16.489,6.818C22.914,6.818 28.395,4.543 32.944,0C37.514,-4.576 39.802,-10.07 39.802,-16.495C39.802,-22.914 37.514,-28.408 32.944,-32.984C28.395,-37.527 22.914,-39.802 16.489,-39.802C10.038,-39.802 4.543,-37.527 0,-32.984M4.996,10.7C1.475,9.192 -1.639,7.08 -4.36,4.36C-7.087,1.639 -9.198,-1.482 -10.706,-4.996C-12.266,-8.668 -13.04,-12.503 -13.04,-16.495C-13.04,-20.481 -12.266,-24.303 -10.706,-27.949C-9.198,-31.489 -7.087,-34.623 -4.36,-37.343C-1.639,-40.064 1.475,-42.169 4.996,-43.644C8.641,-45.204 12.476,-45.984 16.489,-45.984C20.481,-45.984 24.303,-45.204 27.949,-43.644C31.463,-42.169 34.583,-40.064 37.297,-37.343C40.051,-34.623 42.162,-31.489 43.644,-27.949C45.204,-24.303 45.978,-20.481 45.978,-16.495C45.978,-12.503 45.204,-8.668 43.644,-4.996C42.162,-1.482 40.051,1.639 37.297,4.36C34.583,7.08 31.463,9.192 27.949,10.7C24.303,12.234 20.481,13 16.489,13C12.476,13 8.641,12.234 4.996,10.7" style="fill:rgb(149,150,150);fill-rule:nonzero;"/>
                </g>
                <g transform="matrix(1,0,0,1,478.315,395.156)">
                    <path d="M0,-57.877L0,-23.307C0,-16.889 -2.288,-11.388 -6.858,-6.818C-11.408,-2.274 -16.889,0 -23.313,0C-29.759,0 -35.259,-2.274 -39.803,-6.818C-44.346,-11.388 -46.621,-16.889 -46.621,-23.307L-46.621,-57.877L-40.438,-57.877L-40.438,-23.307C-40.438,-18.606 -38.76,-14.574 -35.403,-11.217C-32.072,-7.887 -28.041,-6.222 -23.313,-6.222C-18.606,-6.222 -14.595,-7.887 -11.264,-11.217C-7.907,-14.574 -6.229,-18.606 -6.229,-23.307L-6.229,-57.877L0,-57.877Z" style="fill:rgb(149,150,150);fill-rule:nonzero;"/>
                </g>
                <g transform="matrix(1,0,0,1,512.269,387.898)">
                    <path d="M0,-44.312L0,-16.882L13.716,-16.882C17.524,-16.882 20.757,-18.219 23.425,-20.887C26.1,-23.583 27.431,-26.821 27.431,-30.597C27.431,-34.38 26.1,-37.599 23.425,-40.274C20.757,-42.968 17.524,-44.312 13.716,-44.312L0,-44.312ZM23.229,-13C26.401,-10.91 28.912,-8.189 30.762,-4.832C32.637,-1.396 33.574,2.288 33.574,6.228L33.574,6.268L27.312,6.268L27.312,6.228C27.312,1.6 25.674,-2.36 22.396,-5.665C19.092,-8.968 15.112,-10.621 10.464,-10.621L0,-10.621L0,6.268L-6.261,6.268L-6.261,-50.58L13.716,-50.58C19.242,-50.58 23.956,-48.62 27.87,-44.712C31.777,-40.798 33.731,-36.098 33.731,-30.597C33.731,-26.874 32.755,-23.412 30.801,-20.212C28.919,-17.151 26.401,-14.745 23.229,-13" style="fill:rgb(149,150,150);fill-rule:nonzero;"/>
                </g>
                <g transform="matrix(1,0,0,1,619.401,336.21)">
                    <path d="M0,59.182L-40.792,15.814L-40.792,57.956L-47.053,57.956L-47.053,0L-6.261,43.408L-6.261,1.109L0,1.109L0,59.182Z" style="fill:rgb(149,150,150);fill-rule:nonzero;"/>
                </g>
                <g transform="matrix(1,0,0,1,675.476,354.01)">
                    <path d="M0,23.425L-9.474,-0.039L-18.947,23.425L0,23.425ZM13.519,40.156L6.779,40.156L2.537,29.647L-21.484,29.647L-25.726,40.156L-32.466,40.156L-9.474,-16.731L13.519,40.156Z" style="fill:rgb(149,150,150);fill-rule:nonzero;"/>
                </g>
                <g transform="matrix(1,0,0,1,719.145,343.588)">
                    <path d="M0,44.31L29.214,44.31L29.214,50.579L-6.268,50.579L-6.268,-6.269L0,-6.269L0,44.31Z" style="fill:rgb(149,150,150);fill-rule:nonzero;"/>
                </g>
            </g>
        </g>
        <g transform="matrix(1,0,0,1,102.875,238.18)">
            <path d="M0,69.722C1.136,69.722 3.299,65.592 4.602,63.125C7.677,57.318 11.351,54.671 16.091,54.546C23.436,54.643 27.317,62.418 28.979,65.731L34.828,77.455L48.659,30.68C50.46,23.655 53.981,19.774 58.805,20.259C63.709,20.453 66.856,24.306 68.131,31.692L82.101,99.131L92.217,66.77C94.477,58.302 99.647,56.445 102.529,56.126C105.384,55.794 110.859,56.432 115.127,64.428C115.141,64.456 119.771,73.215 121.904,76.956C122.182,77.427 122.432,77.843 122.652,78.203L123.567,77.261C126.644,73.921 130.469,69.75 137.413,69.75L174.797,69.75C174.8,69.391 174.851,69.043 174.851,68.683C174.851,14.509 130.933,-29.409 76.759,-29.409C22.585,-29.409 -21.333,14.509 -21.333,68.683C-21.333,69.037 -21.284,69.38 -21.279,69.734L0,69.722Z" style="fill:rgb(117,48,67);fill-rule:nonzero;"/>
        </g>
        <g transform="matrix(1,0,0,1,240.288,371.61)">
            <path d="M0,-49.488C-0.569,-49.488 -1.026,-49.141 -3.381,-46.564C-4.186,-45.691 -5.059,-44.749 -6.029,-43.778C-7.262,-42.559 -10.963,-38.927 -16.437,-39.537C-21.924,-40.286 -25.279,-44.97 -27.843,-49.461C-29.118,-51.692 -31.266,-55.67 -32.846,-58.621L-46.456,-15.063C-48.258,-8.313 -51.583,-4.764 -56.282,-4.764C-56.42,-4.764 -56.573,-4.779 -56.711,-4.779C-61.632,-5.001 -64.777,-8.854 -66.053,-16.227L-79.856,-82.833L-90.265,-47.618C-92.564,-38.595 -98.33,-37.015 -100.7,-36.766C-103.028,-36.544 -108.974,-36.862 -113.131,-45.331L-121.143,-61.366C-121.197,-61.491 -121.253,-61.601 -121.309,-61.713C-124.427,-55.988 -128.792,-49.516 -137.413,-49.516L-157.442,-49.506C-150.104,-2.589 -109.63,33.345 -60.654,33.345C-11.683,33.345 28.788,-2.58 36.133,-49.488L0,-49.488Z" style="fill:rgb(149,150,150);fill-rule:nonzero;"/>
        </g>
        <g transform="matrix(1,0,0,1,336.301,224.453)">
            <path d="M0,-23.856C0.536,-23.855 0.803,-23.603 0.802,-23.102L0.795,-19.752C0.794,-19.227 0.526,-18.965 -0.01,-18.966L-10.996,-18.988L-11.033,-0.696C-11.034,-0.194 -11.292,0.056 -11.804,0.055L-15.618,0.047C-16.131,0.046 -16.387,-0.205 -16.386,-0.707L-16.349,-19L-27.334,-19.022C-27.872,-19.023 -28.139,-19.285 -28.138,-19.81L-28.131,-23.16C-28.13,-23.662 -27.861,-23.912 -27.325,-23.911L0,-23.856Z" style="fill:rgb(117,48,67);fill-rule:nonzero;"/>
        </g>
        <g transform="matrix(1,0,0,1,344.801,224.584)">
            <path d="M0,-23.97C0.513,-23.969 0.77,-23.717 0.769,-23.216L0.75,-14.326L17.124,-14.293L17.142,-23.183C17.143,-23.684 17.4,-23.935 17.914,-23.934L21.691,-23.927C22.229,-23.925 22.496,-23.674 22.495,-23.172L22.45,-0.743C22.449,-0.24 22.18,0.009 21.643,0.008L17.865,0.001C17.352,0 17.096,-0.251 17.097,-0.754L17.115,-9.848L0.742,-9.882L0.723,-0.786C0.722,-0.284 0.464,-0.034 -0.048,-0.035L-3.826,-0.043C-4.363,-0.044 -4.631,-0.295 -4.63,-0.798L-4.584,-23.227C-4.583,-23.728 -4.315,-23.979 -3.778,-23.978L0,-23.97Z" style="fill:rgb(117,48,67);fill-rule:nonzero;"/>
        </g>
        <g transform="matrix(1,0,0,1,396.826,224.62)">
            <path d="M0,-23.901C0.536,-23.9 0.803,-23.648 0.802,-23.147L0.795,-19.899C0.794,-19.397 0.526,-19.148 -0.009,-19.149L-15.299,-19.18C-16.209,-19.181 -16.961,-19.109 -17.557,-18.962C-18.151,-18.814 -18.63,-18.565 -18.992,-18.212C-19.354,-17.859 -19.606,-17.381 -19.747,-16.777C-19.888,-16.173 -19.959,-15.427 -19.961,-14.539L-19.962,-14.196L-0.195,-14.156C0.318,-14.155 0.575,-13.904 0.574,-13.403L0.568,-10.702C0.567,-10.2 0.31,-9.95 -0.204,-9.951L-19.971,-9.99L-19.972,-9.409C-19.974,-8.521 -19.905,-7.773 -19.766,-7.17C-19.628,-6.565 -19.378,-6.087 -19.018,-5.732C-18.657,-5.378 -18.179,-5.126 -17.585,-4.977C-16.99,-4.828 -16.238,-4.752 -15.329,-4.75L-0.039,-4.719C0.497,-4.718 0.765,-4.466 0.764,-3.966L0.757,-0.717C0.756,-0.215 0.487,0.035 -0.048,0.034L-15.442,0.002C-17.216,-0.001 -18.719,-0.164 -19.955,-0.486C-21.19,-0.806 -22.198,-1.328 -22.979,-2.047C-23.759,-2.767 -24.328,-3.703 -24.687,-4.855C-25.046,-6.006 -25.224,-7.403 -25.221,-9.045L-25.209,-14.925C-25.206,-16.566 -25.022,-17.956 -24.658,-19.095C-24.294,-20.234 -23.722,-21.162 -22.938,-21.878C-22.155,-22.595 -21.146,-23.116 -19.909,-23.445C-18.672,-23.773 -17.167,-23.936 -15.395,-23.932L0,-23.901Z" style="fill:rgb(117,48,67);fill-rule:nonzero;"/>
        </g>
    </g>
</svg>
